<svg width="19" height="18" viewBox="0 0 19 18" fill="none" xmlns="http://www.w3.org/2000/svg">
<path d="M2.68377 17.6666C2.18472 17.6666 1.76836 17.4998 1.43469 17.1661C1.10102 16.8325 0.933828 16.4158 0.933105 15.916V2.08398C0.933105 1.58492 1.1003 1.16856 1.43469 0.834896C1.76908 0.501229 2.18544 0.334035 2.68377 0.333313H16.5169C17.0152 0.333313 17.4315 0.500507 17.7659 0.834896C18.1003 1.16928 18.2672 1.58565 18.2664 2.08398V15.9171C18.2664 16.4154 18.0996 16.8318 17.7659 17.1661C17.4323 17.5005 17.0155 17.6674 16.5158 17.6666H2.68377ZM2.68377 16.5833H16.5169C16.683 16.5833 16.8357 16.514 16.9751 16.3753C17.1145 16.2366 17.1838 16.0835 17.1831 15.916V4.83348H2.01644V15.916C2.01644 16.0835 2.08577 16.2366 2.22444 16.3753C2.36311 16.514 2.51586 16.5833 2.68269 16.5833" fill="#888888"/>
</svg>
