<svg width="16" height="16" viewBox="0 0 16 16" fill="none" xmlns="http://www.w3.org/2000/svg">
<path fill-rule="evenodd" clip-rule="evenodd" d="M13.5669 4.08372V11.9163C13.5189 11.9124 13.471 11.9098 13.4231 11.9098C12.5869 11.9098 11.9096 12.5871 11.9096 13.4234C11.9096 13.4549 11.9108 13.4864 11.9135 13.518H4.08597C4.08862 13.4864 4.08976 13.4549 4.08976 13.4234C4.08976 12.5871 3.4112 11.9098 2.57624 11.9098C2.53967 11.9098 2.50435 11.9112 2.46777 11.9149V4.08498C2.50435 4.08876 2.53967 4.09002 2.57624 4.09002C3.4112 4.09002 4.08976 3.41273 4.08976 2.57651C4.08976 2.52354 4.08723 2.47057 4.08219 2.41885H11.9171C11.9121 2.47057 11.9096 2.52354 11.9096 2.57651C11.9096 3.41273 12.5869 4.09002 13.4231 4.09002C13.471 4.09002 13.5189 4.0875 13.5669 4.08372Z" stroke="#14274E"/>
<path fill-rule="evenodd" clip-rule="evenodd" d="M4.09002 2.57656C4.09002 3.41278 3.41146 4.09008 2.5765 4.09008C2.53993 4.09008 2.50461 4.08882 2.46803 4.08503C1.68227 4.0308 1.06299 3.3762 1.06299 2.57656C1.06299 1.74035 1.74029 1.06305 2.5765 1.06305C3.35848 1.06305 4.00299 1.6571 4.08232 2.41891C4.08737 2.47062 4.09002 2.52359 4.09002 2.57656Z" stroke="#14274E"/>
<path fill-rule="evenodd" clip-rule="evenodd" d="M14.9367 2.57656C14.9367 3.36485 14.3338 4.01062 13.567 4.08377C13.519 4.08755 13.4711 4.09008 13.4232 4.09008C12.587 4.09008 11.9097 3.41278 11.9097 2.57656C11.9097 2.52359 11.9122 2.47062 11.9172 2.41891C11.9966 1.6571 12.6399 1.06305 13.4232 1.06305C14.2581 1.06305 14.9367 1.74035 14.9367 2.57656Z" stroke="#14274E"/>
<path fill-rule="evenodd" clip-rule="evenodd" d="M4.09002 13.4233C4.09002 13.4549 4.08875 13.4864 4.08623 13.5179C4.0383 14.31 3.37993 14.9368 2.5765 14.9368C1.74029 14.9368 1.06299 14.2597 1.06299 13.4233C1.06299 12.6237 1.68227 11.9692 2.46803 11.9149C2.50461 11.9112 2.53993 11.9098 2.5765 11.9098C3.41146 11.9098 4.09002 12.5871 4.09002 13.4233Z" stroke="#14274E"/>
<path fill-rule="evenodd" clip-rule="evenodd" d="M14.9367 13.4233C14.9367 14.2597 14.2581 14.9368 13.4232 14.9368C12.6185 14.9368 11.9614 14.31 11.9135 13.5179C11.9109 13.4864 11.9097 13.4549 11.9097 13.4233C11.9097 12.5871 12.587 11.9098 13.4232 11.9098C13.4711 11.9098 13.519 11.9125 13.567 11.9163C14.3338 11.9894 14.9367 12.635 14.9367 13.4233Z" stroke="#14274E"/>
</svg>
