<svg width="21" height="21" viewBox="0 0 21 21" fill="none" xmlns="http://www.w3.org/2000/svg">
<path fill-rule="evenodd" clip-rule="evenodd" d="M11.4372 15.6177L13.5644 17.7503C13.9837 18.1738 13.9727 18.8778 13.5369 19.3178L12.925 19.909L12.914 19.898C12.4039 20.2899 11.7975 20.5374 11.1636 20.613C11.0234 20.6295 7.81136 20.9293 3.82524 16.9335C0.948735 14.0488 -0.115515 11.9175 0.162235 9.58692C0.19661 9.2968 0.26536 9.00667 0.382235 8.70555C0.505985 8.3838 0.67236 8.0868 0.87861 7.8283L0.86211 7.81455L1.45886 7.2123C1.89886 6.7723 2.59736 6.7613 3.01949 7.18617L5.14111 9.31192C5.56599 9.7368 5.54949 10.4339 5.11499 10.8753L4.04249 11.9492C4.08374 12.0193 4.12224 12.0839 4.16074 12.1527V12.1595C4.53474 12.836 5.05036 13.7642 6.02249 14.7363C6.99599 15.7139 7.91861 16.2295 8.59649 16.6063L8.80549 16.7245L9.87936 15.6493C10.3152 15.2093 11.0179 15.1983 11.4372 15.6232V15.6177Z" fill="#14274E"/>
<path fill-rule="evenodd" clip-rule="evenodd" d="M7.81592 8.62512C10.0915 8.62512 11.9409 10.4731 11.9409 12.7501C11.9409 13.5077 12.5569 14.1251 13.3159 14.1251C14.0735 14.1251 14.6909 13.5077 14.6909 12.7501C14.6909 8.95237 11.6137 5.87512 7.81592 5.87512C7.05692 5.87512 6.44092 6.4925 6.44092 7.25012C6.44092 8.00775 7.05692 8.62512 7.81592 8.62512Z" fill="#14274E"/>
<path fill-rule="evenodd" clip-rule="evenodd" d="M7.81592 3.12512C13.133 3.12512 17.4409 7.433 17.4409 12.7501C17.4409 13.5077 18.0569 14.1251 18.8159 14.1251C19.5735 14.1251 20.1909 13.5077 20.1909 12.7501C20.1909 5.91775 14.6483 0.375122 7.81592 0.375122C7.05692 0.375122 6.44092 0.992497 6.44092 1.75012C6.44092 2.50775 7.05692 3.12512 7.81592 3.12512Z" fill="#14274E"/>
</svg>
