<svg width="22" height="22" viewBox="0 0 22 22" fill="none" xmlns="http://www.w3.org/2000/svg">
<path fill-rule="evenodd" clip-rule="evenodd" d="M17.6 18.3333H14.08C13.5502 18.3333 13.2 17.9685 13.2 17.4167C13.2 16.8648 13.5502 16.5 14.08 16.5H17.6C18.5698 16.5 19.36 15.6768 19.36 14.6667V3.66667C19.36 2.6565 18.5698 1.83333 17.6 1.83333H3.52C2.55024 1.83333 1.76 2.6565 1.76 3.66667V14.6667C1.76 15.6768 2.55024 16.5 3.52 16.5H7.04C7.56976 16.5 7.92 16.8648 7.92 17.4167C7.92 17.9685 7.56976 18.3333 7.04 18.3333H3.52C1.58488 18.3333 0 16.6824 0 14.6667V3.66667C0 1.65092 1.58488 0 3.52 0H17.6C19.5351 0 21.12 1.65092 21.12 3.66667V14.6667C21.12 16.6824 19.5351 18.3333 17.6 18.3333Z" fill="#14274E"/>
<path fill-rule="evenodd" clip-rule="evenodd" d="M14.0799 13.75H5.2799C4.75014 13.75 4.3999 13.3851 4.3999 12.8333C4.3999 12.2815 4.75014 11.9166 5.2799 11.9166H14.0799C14.6097 11.9166 14.9599 12.2815 14.9599 12.8333C14.9599 13.3851 14.6097 13.75 14.0799 13.75ZM11.4399 10.0833H5.2799C4.75014 10.0833 4.3999 9.71848 4.3999 9.16665C4.3999 8.61481 4.75014 8.24998 5.2799 8.24998H11.4399C11.9697 8.24998 12.3199 8.61481 12.3199 9.16665C12.3199 9.71848 11.9697 10.0833 11.4399 10.0833ZM15.8399 6.41665H5.2799C4.75014 6.41665 4.3999 6.05181 4.3999 5.49998C4.3999 4.94815 4.75014 4.58331 5.2799 4.58331H15.8399C16.3697 4.58331 16.7199 4.94815 16.7199 5.49998C16.7199 6.05181 16.3697 6.41665 15.8399 6.41665ZM10.5599 22C10.295 22 10.1199 21.9065 9.94478 21.7241L6.42478 18.0574C6.07014 17.6926 6.07014 17.1407 6.42478 16.7759C6.77502 16.4065 7.30478 16.4065 7.65502 16.7759L10.5599 19.8018L13.4648 16.7759C13.815 16.4065 14.3448 16.4065 14.695 16.7759C15.0497 17.1407 15.0497 17.6926 14.695 18.0574L11.175 21.7241C10.9999 21.9065 10.8248 22 10.5599 22Z" fill="#14274E"/>
</svg>
