<svg width="25" height="24" viewBox="0 0 25 24" fill="none" xmlns="http://www.w3.org/2000/svg">
<path d="M7.8999 16.5L14.8999 14.5L16.8999 7.5L9.8999 9.5L7.8999 16.5ZM12.3999 13.5C11.9832 13.5 11.6292 13.3543 11.3379 13.063C11.0466 12.7717 10.9006 12.4173 10.8999 12C10.8992 11.5827 11.0452 11.2287 11.3379 10.938C11.6306 10.6473 11.9846 10.5013 12.3999 10.5C12.8152 10.4987 13.1696 10.6447 13.4629 10.938C13.7562 11.2313 13.9019 11.5853 13.8999 12C13.8979 12.4147 13.7522 12.769 13.4629 13.063C13.1736 13.357 12.8192 13.5027 12.3999 13.5ZM12.3999 22C11.0166 22 9.71657 21.7373 8.4999 21.212C7.28324 20.6867 6.2249 19.9743 5.3249 19.075C4.4249 18.1757 3.71257 17.1173 3.1879 15.9C2.66324 14.6827 2.40057 13.3827 2.3999 12C2.39924 10.6173 2.6619 9.31733 3.1879 8.1C3.7139 6.88267 4.42624 5.82433 5.3249 4.925C6.22357 4.02567 7.2819 3.31333 8.4999 2.788C9.7179 2.26267 11.0179 2 12.3999 2C13.7819 2 15.0819 2.26267 16.2999 2.788C17.5179 3.31333 18.5762 4.02567 19.4749 4.925C20.3736 5.82433 21.0862 6.88267 21.6129 8.1C22.1396 9.31733 22.4019 10.6173 22.3999 12C22.3979 13.3827 22.1352 14.6827 21.6119 15.9C21.0886 17.1173 20.3762 18.1757 19.4749 19.075C18.5736 19.9743 17.5152 20.687 16.2999 21.213C15.0846 21.739 13.7846 22.0013 12.3999 22ZM12.3999 20C14.6166 20 16.5042 19.221 18.0629 17.663C19.6216 16.105 20.4006 14.2173 20.3999 12C20.3992 9.78267 19.6202 7.895 18.0629 6.337C16.5056 4.779 14.6179 4 12.3999 4C10.1819 4 8.29424 4.77933 6.7369 6.338C5.17957 7.89667 4.40057 9.784 4.3999 12C4.39924 14.216 5.17857 16.1037 6.7379 17.663C8.29724 19.2223 10.1846 20.0013 12.3999 20Z" fill="#888888"/>
</svg>
