<svg width="24" height="20" viewBox="0 0 24 20" fill="none" xmlns="http://www.w3.org/2000/svg">
<path opacity="0.3" fill-rule="evenodd" clip-rule="evenodd" d="M23.8278 8.50993C23.8278 10.0524 23.2959 11.4773 22.2322 12.7848C21.1684 14.0923 19.7235 15.1251 17.8974 15.883C16.0714 16.6409 14.0769 17.0199 11.9139 17.0199C10.9388 17.0199 10.0036 16.9401 9.10828 16.7805C7.57474 18.3141 5.64671 19.3291 3.32419 19.8255C2.86322 19.9141 2.48208 19.9717 2.18067 19.9983C2.0743 20.0072 1.9768 19.9806 1.88814 19.9186C1.79948 19.8565 1.74188 19.7767 1.71528 19.6792C1.67981 19.5462 1.76847 19.3823 1.98122 19.1872C2.02552 19.1429 2.12972 19.0476 2.29369 18.9014C2.45767 18.7551 2.57069 18.6509 2.63276 18.5889C2.69483 18.5268 2.79897 18.4138 2.94523 18.2498C3.0915 18.0858 3.19787 17.9462 3.26436 17.831C3.33084 17.7157 3.42168 17.5517 3.53694 17.339C3.6522 17.1262 3.74081 16.9135 3.80287 16.7007C3.86494 16.488 3.92919 16.2331 3.99568 15.9362C4.06216 15.6392 4.11758 15.3179 4.16189 14.9722C2.86769 14.1743 1.85048 13.2147 1.11028 12.0934C0.370076 10.9721 0 9.77754 0 8.50993C0 6.9675 0.53187 5.54249 1.59561 4.23502C2.65935 2.92755 4.10429 1.89479 5.93036 1.13687C7.75643 0.378958 9.75094 0 11.9139 0C14.0769 0 16.0714 0.378958 17.8974 1.13687C19.7235 1.89479 21.1684 2.92755 22.2322 4.23502C23.2959 5.54249 23.8278 6.9675 23.8278 8.50993ZM18.7218 8.50993C18.7218 8.04013 18.5556 7.63899 18.2232 7.30657C17.8908 6.97415 17.4896 6.80794 17.0199 6.80794C16.5501 6.80794 16.1489 6.97415 15.8165 7.30657C15.4841 7.63899 15.3179 8.04013 15.3179 8.50993C15.3179 8.97973 15.4841 9.38087 15.8165 9.71329C16.1489 10.0457 16.5501 10.2119 17.0199 10.2119C17.4896 10.2119 17.8908 10.0457 18.2232 9.71329C18.5556 9.38087 18.7218 8.97973 18.7218 8.50993ZM13.6159 8.50993C13.6159 8.04013 13.4497 7.63899 13.1173 7.30657C12.7848 6.97415 12.3837 6.80794 11.9139 6.80794C11.4441 6.80794 11.043 6.97415 10.7105 7.30657C10.3781 7.63899 10.2119 8.04013 10.2119 8.50993C10.2119 8.97973 10.3781 9.38087 10.7105 9.71329C11.043 10.0457 11.4441 10.2119 11.9139 10.2119C12.3837 10.2119 12.7848 10.0457 13.1173 9.71329C13.4497 9.38087 13.6159 8.97973 13.6159 8.50993ZM8.50993 8.50993C8.50993 8.04013 8.34372 7.63899 8.0113 7.30657C7.67888 6.97415 7.27774 6.80794 6.80794 6.80794C6.33814 6.80794 5.937 6.97415 5.60459 7.30657C5.27217 7.63899 5.10596 8.04013 5.10596 8.50993C5.10596 8.97973 5.27217 9.38087 5.60459 9.71329C5.937 10.0457 6.33814 10.2119 6.80794 10.2119C7.27774 10.2119 7.67888 10.0457 8.0113 9.71329C8.34372 9.38087 8.50993 8.97973 8.50993 8.50993Z" fill="#14274E"/>
</svg>
