<svg width="22" height="22" viewBox="0 0 22 22" fill="none" xmlns="http://www.w3.org/2000/svg">
<path fill-rule="evenodd" clip-rule="evenodd" d="M7.33285 3.66703C7.33285 4.6772 6.50968 5.50037 5.49951 5.50037C4.48935 5.50037 3.66618 4.6772 3.66618 3.66703C3.66618 2.65687 4.48935 1.8337 5.49951 1.8337C6.50968 1.8337 7.33285 2.65687 7.33285 3.66703ZM5.49951 0.000366211C3.83118 0.00769954 2.37735 1.13887 1.96118 2.75037H0.916178C0.408345 2.75037 -0.000488281 3.1592 -0.000488281 3.66703C-0.000488281 4.17487 0.408345 4.5837 0.916178 4.5837H1.96118C2.39935 6.18053 3.84585 7.29153 5.49951 7.29153C7.15318 7.29153 8.59968 6.18053 9.03784 4.5837H21.0828C21.5907 4.5837 21.9995 4.17487 21.9995 3.66703C21.9995 3.1592 21.5907 2.75037 21.0828 2.75037H9.03784C8.62168 1.13887 7.16968 0.00769954 5.49951 0.000366211ZM18.3328 11.0004C18.3328 12.0105 17.5115 12.8337 16.4995 12.8337C15.4893 12.8337 14.6662 12.0105 14.6662 11.0004C14.6662 9.9902 15.4893 9.16703 16.4995 9.16703C17.5115 9.16703 18.3328 9.9902 18.3328 11.0004ZM12.9612 10.0837H0.916178C0.408345 10.0837 -0.000488281 10.4925 -0.000488281 11.0004C-0.000488281 11.5064 0.408345 11.917 0.916178 11.917H12.9612C13.4012 13.5139 14.8477 14.6249 16.4995 14.6249C18.1532 14.6249 19.5997 13.5139 20.0397 11.917H21.0828C21.5907 11.917 21.9995 11.5064 21.9995 11.0004C21.9995 10.4925 21.5907 10.0837 21.0828 10.0837H20.0397C19.5997 8.48687 18.1532 7.37587 16.4995 7.37587C14.8477 7.37587 13.4012 8.48687 12.9612 10.0837ZM9.16618 18.3337C9.16618 19.3439 8.34301 20.167 7.33285 20.167C6.32268 20.167 5.49951 19.3439 5.49951 18.3337C5.49951 17.3217 6.32268 16.5004 7.33285 16.5004C8.34301 16.5004 9.16618 17.3217 9.16618 18.3337ZM7.33285 14.667C5.66451 14.6744 4.21068 15.8055 3.79451 17.417H0.916178C0.408345 17.417 -0.000488281 17.8259 -0.000488281 18.3337C-0.000488281 18.8397 0.408345 19.2504 0.916178 19.2504H3.79451C4.23268 20.8472 5.67918 21.9582 7.33285 21.9582C8.98651 21.9582 10.433 20.8472 10.8712 19.2504H21.0828C21.5907 19.2504 21.9995 18.8397 21.9995 18.3337C21.9995 17.8259 21.5907 17.417 21.0828 17.417H10.8712C10.455 15.8055 9.00118 14.6744 7.33285 14.667Z" fill="#14274E"/>
</svg>
