<svg width="30" height="30" viewBox="0 0 30 30" fill="none" xmlns="http://www.w3.org/2000/svg">
<circle cx="15" cy="15" r="15" fill="white"/>
<path fill-rule="evenodd" clip-rule="evenodd" d="M17.955 11.524H18.0259C18.8819 11.7931 19.491 12.5427 19.5696 13.4263L19.5722 13.5002C19.5696 13.5987 19.5371 13.6954 19.4734 13.7743C19.3974 13.8728 19.283 13.9341 19.1562 13.9493C18.8943 13.984 18.6531 13.8015 18.618 13.54C18.5946 13.0164 18.2417 12.563 17.734 12.4051C17.5462 12.2888 17.4623 12.0596 17.5312 11.8524C17.6021 11.6427 17.8055 11.507 18.0259 11.524H17.955ZM15.5045 9.65643C16.5738 8.99264 17.8816 8.82274 19.0873 9.19032C20.1384 9.50864 21.0094 10.2362 21.5021 11.2057C22.0786 12.3823 22.1573 13.7371 21.7205 14.9705C21.3194 16.1055 20.659 17.1368 19.7932 17.9806C19.2271 18.5478 18.6154 19.0682 17.9654 19.5419L17.9297 19.5691C17.7139 19.7099 17.4246 19.6556 17.2745 19.4434C17.201 19.3423 17.1705 19.2166 17.1932 19.0903C17.2134 18.9672 17.2849 18.856 17.3915 18.7872C18.0005 18.3381 18.5745 17.8474 19.1101 17.3168C19.8823 16.5792 20.4712 15.6735 20.8319 14.6743C21.1797 13.6802 21.1088 12.5876 20.6363 11.6453C20.258 10.9025 19.5878 10.3448 18.7851 10.1004C17.7594 9.78211 16.642 9.97474 15.784 10.6164C15.6137 10.7421 15.3803 10.7421 15.2107 10.6164C14.354 9.97474 13.2379 9.78211 12.2116 10.1004C11.401 10.3373 10.7257 10.895 10.3428 11.6377C9.88068 12.5825 9.81503 13.6682 10.1569 14.6598C10.5203 15.6564 11.1098 16.5571 11.8794 17.2922C13.0169 18.3728 14.2708 19.3253 15.6189 20.1318C15.7892 20.2499 15.8652 20.4621 15.8041 20.6598C15.7463 20.8594 15.563 20.9952 15.355 21.0002C15.2607 21.0002 15.1697 20.9731 15.0911 20.9213C13.6871 20.08 12.3786 19.0884 11.1963 17.963C10.3253 17.1217 9.66487 16.0903 9.26317 14.9535C8.84197 13.7225 8.92907 12.3754 9.50497 11.2057C9.99768 10.2362 10.8687 9.50864 11.9197 9.19032C13.1261 8.82274 14.4333 8.99264 15.5045 9.65643Z" fill="#14274E"/>
</svg>
