<svg width="25" height="24" viewBox="0 0 25 24" fill="none" xmlns="http://www.w3.org/2000/svg">
<path d="M12.2697 3.84099C12.4104 3.70054 12.601 3.62165 12.7997 3.62165C12.9985 3.62165 13.1891 3.70054 13.3297 3.84099L22.0197 12.531C22.089 12.6026 22.1718 12.6597 22.2633 12.699C22.3548 12.7382 22.4532 12.7589 22.5528 12.7597C22.6524 12.7605 22.7511 12.7415 22.8433 12.7037C22.9354 12.666 23.0192 12.6102 23.0895 12.5398C23.1599 12.4693 23.2156 12.3856 23.2532 12.2934C23.2909 12.2012 23.3098 12.1024 23.3089 12.0028C23.308 11.9032 23.2873 11.8048 23.2479 11.7134C23.2086 11.6219 23.1514 11.5391 23.0797 11.47L14.3907 2.77999C14.1818 2.57106 13.9338 2.40532 13.6608 2.29225C13.3878 2.17917 13.0952 2.12097 12.7997 2.12097C12.5043 2.12097 12.2117 2.17917 11.9387 2.29225C11.6657 2.40532 11.4177 2.57106 11.2087 2.77999L2.51875 11.47C2.44715 11.5392 2.39005 11.622 2.35079 11.7135C2.31153 11.805 2.29088 11.9035 2.29006 12.003C2.28925 12.1026 2.30827 12.2014 2.34602 12.2935C2.38378 12.3857 2.43951 12.4694 2.50996 12.5398C2.58041 12.6102 2.66418 12.6658 2.75637 12.7035C2.84856 12.7412 2.94732 12.7601 3.04691 12.7592C3.14649 12.7583 3.2449 12.7375 3.33638 12.6982C3.42786 12.6588 3.5106 12.6017 3.57975 12.53L12.2697 3.84099Z" fill="#888888"/>
<path d="M12.7998 5.43201L20.9588 13.591C20.9888 13.621 21.0188 13.649 21.0498 13.677V19.875C21.0498 20.91 20.2098 21.75 19.1748 21.75H15.7998C15.6009 21.75 15.4101 21.671 15.2695 21.5303C15.1288 21.3897 15.0498 21.1989 15.0498 21V16.5C15.0498 16.3011 14.9708 16.1103 14.8301 15.9697C14.6895 15.829 14.4987 15.75 14.2998 15.75H11.2998C11.1009 15.75 10.9101 15.829 10.7695 15.9697C10.6288 16.1103 10.5498 16.3011 10.5498 16.5V21C10.5498 21.1989 10.4708 21.3897 10.3301 21.5303C10.1895 21.671 9.99872 21.75 9.7998 21.75H6.4248C5.92752 21.75 5.45061 21.5525 5.09898 21.2008C4.74735 20.8492 4.5498 20.3723 4.5498 19.875V13.677C4.58092 13.6492 4.61126 13.6205 4.6408 13.591L12.7998 5.43201Z" fill="#888888"/>
</svg>
