<svg width="23" height="22" viewBox="0 0 23 22" fill="none" xmlns="http://www.w3.org/2000/svg">
<path d="M14.6378 5.5C14.6378 6.41168 14.2756 7.28602 13.6309 7.93068C12.9863 8.57534 12.1119 8.9375 11.2003 8.9375C10.2886 8.9375 9.41423 8.57534 8.76958 7.93068C8.12492 7.28602 7.76276 6.41168 7.76276 5.5C7.76276 4.58832 8.12492 3.71398 8.76958 3.06932C9.41423 2.42466 10.2886 2.0625 11.2003 2.0625C12.1119 2.0625 12.9863 2.42466 13.6309 3.06932C14.2756 3.71398 14.6378 4.58832 14.6378 5.5ZM4.32617 18.4415C4.35563 16.6378 5.09281 14.918 6.37875 13.6529C7.66469 12.3878 9.39634 11.6788 11.2003 11.6788C13.0042 11.6788 14.7358 12.3878 16.0218 13.6529C17.3077 14.918 18.0449 16.6378 18.0743 18.4415C15.9178 19.4304 13.5727 19.9407 11.2003 19.9375C8.74725 19.9375 6.41892 19.4022 4.32617 18.4415Z" stroke="#888888" stroke-width="1.5" stroke-linecap="round" stroke-linejoin="round"/>
</svg>
