<svg width="30" height="30" viewBox="0 0 30 30" fill="none" xmlns="http://www.w3.org/2000/svg">
<circle cx="15" cy="15" r="15" fill="#14274E"/>
<path fill-rule="evenodd" clip-rule="evenodd" d="M15 22C14.8646 22 14.75 21.9531 14.6562 21.8594L9.78125 17.1562C9.72916 17.1146 9.65756 17.0469 9.56641 16.9531C9.47525 16.8594 9.33072 16.6888 9.13281 16.4414C8.93491 16.194 8.75781 15.9401 8.60156 15.6797C8.44531 15.4193 8.306 15.1041 8.18359 14.7344C8.06119 14.3646 8 14.0052 8 13.6562C8 12.5104 8.33072 11.6146 8.99219 10.9688C9.65366 10.3229 10.5677 10 11.7344 10C12.0573 10 12.3867 10.056 12.7227 10.168C13.0586 10.2799 13.3711 10.431 13.6602 10.6211C13.9492 10.8112 14.1979 10.9896 14.4062 11.1562C14.6146 11.3229 14.8125 11.5 15 11.6875C15.1875 11.5 15.3854 11.3229 15.5938 11.1562C15.8021 10.9896 16.0508 10.8112 16.3398 10.6211C16.6289 10.431 16.9414 10.2799 17.2773 10.168C17.6133 10.056 17.9427 10 18.2656 10C19.4323 10 20.3463 10.3229 21.0078 10.9688C21.6693 11.6146 22 12.5104 22 13.6562C22 14.8073 21.4037 15.9792 20.2109 17.1719L15.3438 21.8594C15.25 21.9531 15.1354 22 15 22Z" fill="white"/>
</svg>
