<svg width="15" height="14" viewBox="0 0 15 14" fill="none" xmlns="http://www.w3.org/2000/svg">
<path fill-rule="evenodd" clip-rule="evenodd" d="M11.729 8.7093C11.5389 8.89351 11.4497 9.16393 11.4962 9.42329L12.149 13.05C12.2042 13.358 12.0775 13.6682 11.8181 13.8443C11.5676 14.0285 11.2368 14.0513 10.9575 13.9047L7.69338 12.2004C7.57549 12.1429 7.44876 12.1053 7.32497 12.1053H7.12381C7.05161 12.1112 6.98529 12.1429 6.92487 12.1717L3.66146 13.8818C3.5001 13.9621 3.31589 13.9938 3.14052 13.9621C2.69695 13.8759 2.40959 13.4611 2.48401 13.0264L3.14052 9.39971C3.18326 9.13519 3.0941 8.87067 2.904 8.68057L0.241844 6.10093C0.023006 5.87989 -0.0602556 5.56379 0.0458476 5.26684C0.140898 4.97948 0.39142 4.76654 0.699414 4.71422L4.36071 4.18518C4.64292 4.15645 4.8846 3.98624 5.01133 3.73572L6.62277 0.428834C6.66035 0.353677 6.71193 0.2881 6.77235 0.22768L6.83866 0.178312C6.8674 0.138524 6.91087 0.10905 6.95655 0.0803142L7.03761 0.0515779L7.16139 0H7.47233C7.75159 0.0287363 7.99622 0.198943 8.12001 0.440623L9.75429 3.73572C9.87218 3.9774 10.1028 4.14171 10.3673 4.18518L14.0286 4.71422C14.3396 4.76064 14.5989 4.97359 14.6991 5.26684C14.7942 5.56379 14.7139 5.88873 14.4862 6.10093L11.729 8.7093Z" fill="#14274E"/>
</svg>
