<svg width="100" height="100" viewBox="0 0 100 100" fill="none" xmlns="http://www.w3.org/2000/svg">
<path fill-rule="evenodd" clip-rule="evenodd" d="M100 50C100 77.6208 77.6208 100 50 100C22.3792 100 0 77.6208 0 50C0 22.3792 22.3792 0 50 0C77.6208 0 100 22.3792 100 50Z" fill="#176B87"/>
<path fill-rule="evenodd" clip-rule="evenodd" d="M60.5144 98.8279C61.4727 98.6321 62.4352 98.4196 63.3769 98.1779C64.9894 97.7363 66.5685 97.1988 68.1144 96.5988C69.6769 95.9946 71.1935 95.3113 72.6727 94.5654C74.1685 93.7988 75.6185 92.9696 77.0185 92.0738C78.4185 91.1779 79.7685 90.2029 81.0852 89.1613C82.3894 88.1363 83.6435 87.0279 84.831 85.8571C86.0352 84.6988 87.1727 83.4779 88.2477 82.2113C89.3227 80.9404 90.331 79.6071 91.2602 78.2238C92.2019 76.8571 93.081 75.4404 93.881 73.9738C94.6768 72.5113 95.4102 71.0113 96.0602 69.4821C96.7144 67.9363 97.281 66.3738 97.7685 64.7779C98.1935 63.3779 98.5519 61.9779 98.8602 60.5446L69.1394 30.8404C64.0769 25.7488 57.1935 22.8988 50.0144 22.8988C42.8185 22.8821 35.9227 25.7488 30.8394 30.8404C25.7685 35.9196 22.9019 42.8029 22.9019 49.9988C22.9019 57.1779 25.7685 64.0779 30.8394 69.1571L60.5144 98.8113V98.8279Z" fill="#176B87"/>
<path fill-rule="evenodd" clip-rule="evenodd" d="M62.3369 41.6667C61.9452 41.7 61.5702 41.8458 61.2452 42.0917L46.0286 53.5167L38.9786 46.45C37.4494 44.875 34.4411 47.8667 36.0327 49.3958L44.3661 57.7292C45.0994 58.4458 46.2411 58.5292 47.0869 57.925L63.7536 45.425C65.1536 44.4167 64.2911 41.7 62.5494 41.6667H62.3369ZM49.9994 22.9C56.9327 22.9 63.8494 25.5542 69.1577 30.8417C74.2327 35.9208 77.0994 42.8042 77.0994 50C77.0994 57.1958 74.2327 64.0792 69.1577 69.1583C64.0786 74.2333 57.1952 77.1 49.9994 77.1C42.8036 77.1 35.9202 74.2333 30.8411 69.1583C25.7661 64.0792 22.8994 57.1958 22.8994 50C22.8994 42.8042 25.7661 35.9208 30.8411 30.8417C35.9202 25.75 42.8202 22.9 49.9994 22.9Z" fill="white"/>
</svg>
